<?xml version="1.0" encoding="UTF-8" standalone="no"?> <svg width="64" height="64" viewBox="0 0 64 64" fill="none" xmlns="http://www.w3.org/2000/svg">
<path d="M42.68 11.46L40.79 10.31L41.65 8.31001C41.7831 7.99374 41.8327 7.64851 41.7938 7.30754C41.755 6.96657 41.6291 6.64133 41.4282 6.3631C41.2273 6.08486 40.9582 5.86301 40.6468 5.71886C40.3354 5.57471 39.9921 5.51312 39.65 5.54001L37.45 5.73001L36.95 3.58001C36.8714 3.24562 36.7081 2.9371 36.4757 2.68416C36.2433 2.43123 35.9497 2.24241 35.6231 2.1359C35.2965 2.02939 34.948 2.00879 34.6112 2.07606C34.2744 2.14334 33.9605 2.29623 33.7 2.52001L32 3.93001L30.33 2.49001C30.0694 2.26623 29.7555 2.11334 29.4187 2.04606C29.0819 1.97879 28.7334 1.99939 28.4068 2.1059C28.0802 2.21241 27.7866 2.40123 27.5542 2.65416C27.3218 2.9071 27.1585 3.21562 27.08 3.55001L26.58 5.70001L24.3799 5.51001C24.0378 5.48312 23.6945 5.54471 23.3831 5.68886C23.0717 5.833 22.8026 6.05486 22.6017 6.3331C22.4008 6.61133 22.2749 6.93657 22.2361 7.27754C22.1972 7.61851 22.2468 7.96373 22.3799 8.28001L23.24 10.28L21.35 11.43C21.0561 11.6083 20.8131 11.8593 20.6444 12.1588C20.4758 12.4583 20.3872 12.7963 20.3872 13.14C20.3872 13.4837 20.4758 13.8217 20.6444 14.1212C20.8131 14.4207 21.0561 14.6717 21.35 14.85L23.2099 16L22.35 18C22.2168 18.3163 22.1672 18.6615 22.2061 19.0025C22.2449 19.3435 22.3708 19.6687 22.5717 19.9469C22.7726 20.2252 23.0417 20.447 23.3531 20.5912C23.6645 20.7353 24.0078 20.7969 24.35 20.77L26.5499 20.58L27.0499 22.73C27.1285 23.0644 27.2918 23.3729 27.5242 23.6259C27.7566 23.8788 28.0503 24.0676 28.3768 24.1741C28.7034 24.2806 29.0519 24.3012 29.3887 24.234C29.7255 24.1667 30.0394 24.0138 30.2999 23.79L32 22.42L33.6699 23.87C33.9305 24.0938 34.2444 24.2467 34.5812 24.314C34.918 24.3812 35.2665 24.3606 35.5931 24.2541C35.9196 24.1476 36.2133 23.9588 36.4457 23.7059C36.6781 23.4529 36.8414 23.1444 36.9199 22.81L37.4199 20.66L39.6199 20.85C39.9621 20.8769 40.3054 20.8153 40.6168 20.6712C40.9282 20.527 41.1973 20.3052 41.3982 20.0269C41.5991 19.7487 41.725 19.4235 41.7638 19.0825C41.8027 18.7415 41.7531 18.3963 41.6199 18.08L40.7599 16.08L42.65 14.93C42.9438 14.7517 43.1868 14.5007 43.3555 14.2012C43.5241 13.9017 43.6127 13.5637 43.6127 13.22C43.6127 12.8763 43.5241 12.5383 43.3555 12.2388C43.1868 11.9393 42.9438 11.6883 42.65 11.51L42.68 11.46Z" fill="url(#paint0_linear)"/>
<g opacity="0.3">
<path opacity="0.3" d="M24.5799 20.0001C24.3682 19.7168 24.2354 19.3825 24.195 19.0311C24.1545 18.6798 24.208 18.324 24.3499 18.0001L25.2099 16.0001L23.3199 14.8501C23.026 14.6718 22.7831 14.4208 22.6144 14.1213C22.4458 13.8217 22.3572 13.4838 22.3572 13.1401C22.3572 12.7963 22.4458 12.4584 22.6144 12.1589C22.7831 11.8593 23.026 11.6083 23.3199 11.4301L25.2099 10.2801L24.3499 8.28007C24.246 8.0243 24.1961 7.74977 24.2035 7.47378C24.2108 7.1978 24.2752 6.92632 24.3927 6.67644C24.5101 6.42657 24.678 6.20372 24.8857 6.02191C25.0935 5.8401 25.3367 5.70328 25.5999 5.62007L24.3699 5.52007C24.0278 5.49317 23.6845 5.55476 23.3731 5.69891C23.0617 5.84306 22.7926 6.06492 22.5917 6.34315C22.3908 6.62138 22.2649 6.94662 22.226 7.28759C22.1872 7.62856 22.2368 7.97379 22.3699 8.29007L23.2299 10.2901L21.3399 11.4401C21.046 11.6183 20.8031 11.8693 20.6344 12.1689C20.4658 12.4684 20.3772 12.8063 20.3772 13.1501C20.3772 13.4938 20.4658 13.8317 20.6344 14.1313C20.8031 14.4308 21.046 14.6818 21.3399 14.8601L23.2099 16.0001L22.3499 18.0001C22.2168 18.3163 22.1672 18.6616 22.206 19.0025C22.2449 19.3435 22.3708 19.6688 22.5717 19.947C22.7726 20.2252 23.0417 20.4471 23.3531 20.5912C23.6645 20.7354 24.0078 20.797 24.3499 20.7701L25.5799 20.6701C25.1857 20.5547 24.8366 20.3208 24.5799 20.0001V20.0001Z" fill="black"/>
</g>
<path d="M34.0001 37.06C34.0001 37.5904 33.7894 38.0991 33.4143 38.4742C33.0392 38.8493 32.5305 39.06 32.0001 39.06C31.7101 39.06 31.4201 39.06 31.1401 39.06C27.8191 38.8666 24.6969 37.4142 22.4097 34.9987C20.1224 32.5833 18.8423 29.3865 18.8301 26.06C18.8301 25.5296 19.0408 25.0209 19.4159 24.6458C19.7909 24.2707 20.2996 24.06 20.8301 24.06C24.1532 24.0329 27.3623 25.2698 29.8076 27.5202C32.2529 29.7705 33.7516 32.8661 34.0001 36.18V36.18C34.0154 36.4731 34.0154 36.7669 34.0001 37.06V37.06Z" fill="url(#paint1_linear)"/>
<path opacity="0.3" d="M20.3601 26.0801C20.3603 25.6263 20.5149 25.186 20.7983 24.8317C21.0818 24.4773 21.4774 24.2299 21.9201 24.1301C21.5601 24.1301 21.2001 24.0801 20.8401 24.0801C20.3097 24.0801 19.8009 24.2908 19.4259 24.6659C19.0508 25.0409 18.8401 25.5496 18.8401 26.0801C18.8723 29.3911 20.1601 32.5665 22.4432 34.9647C24.7264 37.3629 27.8346 38.8052 31.1401 39.0001C31.4201 39.0001 31.7101 39.0001 32.0001 39.0001C32.1515 39.0005 32.3025 38.9837 32.4501 38.9501C29.1897 38.7075 26.1389 37.2508 23.9004 34.8679C21.6619 32.4851 20.3986 29.3492 20.3601 26.0801V26.0801Z" fill="black"/>
<path d="M32 43C31.4696 43 30.9609 42.7893 30.5858 42.4142C30.2107 42.0392 30 41.5305 30 41V19.77C30 19.2396 30.2107 18.7309 30.5858 18.3558C30.9609 17.9807 31.4696 17.77 32 17.77C32.5304 17.77 33.0391 17.9807 33.4142 18.3558C33.7893 18.7309 34 19.2396 34 19.77V41C34 41.5305 33.7893 42.0392 33.4142 42.4142C33.0391 42.7893 32.5304 43 32 43Z" fill="url(#paint2_linear)"/>
<path d="M32 16.13C33.6348 16.13 34.96 14.8047 34.96 13.17C34.96 11.5352 33.6348 10.21 32 10.21C30.3653 10.21 29.04 11.5352 29.04 13.17C29.04 14.8047 30.3653 16.13 32 16.13Z" fill="url(#paint3_linear)"/>
<path d="M46.37 23.5401C42.0618 23.5135 37.9189 25.1967 34.85 28.2205C31.7812 31.2444 30.037 35.362 30 39.6701C30 40.2005 30.2107 40.7092 30.5858 41.0843C30.9609 41.4594 31.4696 41.6701 32 41.6701C36.3082 41.6967 40.4511 40.0135 43.52 36.9897C46.5888 33.9658 48.333 29.8482 48.37 25.5401C48.37 25.0097 48.1593 24.501 47.7842 24.1259C47.4091 23.7508 46.9004 23.5401 46.37 23.5401Z" fill="url(#paint4_linear)"/>
<path d="M30.6 38.24L41.08 30.75L33.4 41.09C33.0804 41.521 32.6027 41.8073 32.072 41.8861C31.5412 41.9649 31.001 41.8296 30.57 41.51C30.139 41.1904 29.8526 40.7127 29.7739 40.182C29.6951 39.6513 29.8304 39.111 30.15 38.68C30.2768 38.5114 30.4285 38.363 30.6 38.24V38.24Z" fill="url(#paint5_linear)"/>
<path d="M34 37.0599C34 37.5903 33.7893 38.099 33.4142 38.4741C33.0391 38.8492 32.5304 39.0599 32 39.0599C31.71 39.0599 31.42 39.0599 31.14 39.0599C30.9313 38.9111 30.7488 38.7286 30.6 38.5199L25 30.1299L33.45 35.6399C33.6671 35.7854 33.8567 35.9682 34.01 36.1799V36.1799C34.022 36.4732 34.0186 36.7669 34 37.0599Z" fill="url(#paint6_linear)"/>
<path d="M53.9999 14.3799V13.9999H54.3799C54.9103 13.9999 55.419 13.7892 55.7941 13.4141C56.1692 13.039 56.3799 12.5303 56.3799 11.9999C56.3799 11.4694 56.1692 10.9607 55.7941 10.5857C55.419 10.2106 54.9103 9.99988 54.3799 9.99988H53.9999V9.62988C53.9999 9.09945 53.7892 8.59074 53.4141 8.21567C53.039 7.8406 52.5303 7.62988 51.9999 7.62988C51.4694 7.62988 50.9607 7.8406 50.5857 8.21567C50.2106 8.59074 49.9999 9.09945 49.9999 9.62988V9.99988H49.6299C49.0994 9.99988 48.5907 10.2106 48.2157 10.5857C47.8406 10.9607 47.6299 11.4694 47.6299 11.9999C47.6299 12.5303 47.8406 13.039 48.2157 13.4141C48.5907 13.7892 49.0994 13.9999 49.6299 13.9999H49.9999V14.3799C49.9999 14.9103 50.2106 15.419 50.5857 15.7941C50.9607 16.1692 51.4694 16.3799 51.9999 16.3799C52.5303 16.3799 53.039 16.1692 53.4141 15.7941C53.7892 15.419 53.9999 14.9103 53.9999 14.3799Z" fill="url(#paint7_linear)"/>
<path d="M60 27.63H59.63V27.26C59.63 26.7296 59.4193 26.2209 59.0442 25.8458C58.6692 25.4707 58.1604 25.26 57.63 25.26C57.0996 25.26 56.5909 25.4707 56.2158 25.8458C55.8407 26.2209 55.63 26.7296 55.63 27.26V27.64H55.26C54.7296 27.64 54.2209 27.8507 53.8458 28.2258C53.4707 28.6009 53.26 29.1096 53.26 29.64C53.26 30.1704 53.4707 30.6792 53.8458 31.0542C54.2209 31.4293 54.7296 31.64 55.26 31.64H55.64V32C55.64 32.5304 55.8507 33.0392 56.2258 33.4142C56.6009 33.7893 57.1096 34 57.64 34C58.1704 34 58.6792 33.7893 59.0542 33.4142C59.4293 33.0392 59.64 32.5304 59.64 32V31.63H60C60.5304 31.63 61.0392 31.4193 61.4142 31.0442C61.7893 30.6692 62 30.1604 62 29.63C62 29.0996 61.7893 28.5909 61.4142 28.2158C61.0392 27.8407 60.5304 27.63 60 27.63Z" fill="url(#paint8_linear)"/>
<path d="M14.3799 4.38H13.9999V4C13.9999 3.46957 13.7892 2.96086 13.4141 2.58579C13.039 2.21071 12.5303 2 11.9999 2C11.4694 2 10.9607 2.21071 10.5857 2.58579C10.2106 2.96086 9.99988 3.46957 9.99988 4V4.38H9.62988C9.09945 4.38 8.59074 4.59071 8.21567 4.96579C7.8406 5.34086 7.62988 5.84957 7.62988 6.38C7.62988 6.91043 7.8406 7.41914 8.21567 7.79421C8.59074 8.16929 9.09945 8.38 9.62988 8.38H9.99988V8.76C9.99988 9.29043 10.2106 9.79914 10.5857 10.1742C10.9607 10.5493 11.4694 10.76 11.9999 10.76C12.5303 10.76 13.039 10.5493 13.4141 10.1742C13.7892 9.79914 13.9999 9.29043 13.9999 8.76V8.38H14.3799C14.9103 8.38 15.419 8.16929 15.7941 7.79421C16.1692 7.41914 16.3799 6.91043 16.3799 6.38C16.3799 5.84957 16.1692 5.34086 15.7941 4.96579C15.419 4.59071 14.9103 4.38 14.3799 4.38Z" fill="url(#paint9_linear)"/>
<path d="M8.75 23.63H8.38V23.26C8.38 22.7296 8.16929 22.2209 7.79421 21.8458C7.41914 21.4707 6.91043 21.26 6.38 21.26C5.84957 21.26 5.34086 21.4707 4.96579 21.8458C4.59071 22.2209 4.38 22.7296 4.38 23.26V23.64H4C3.46957 23.64 2.96086 23.8507 2.58579 24.2258C2.21071 24.6009 2 25.1096 2 25.64C2 26.1704 2.21071 26.6792 2.58579 27.0542C2.96086 27.4293 3.46957 27.64 4 27.64H4.38V28C4.38 28.5304 4.59071 29.0391 4.96579 29.4142C5.34086 29.7893 5.84957 30 6.38 30C6.91043 30 7.41914 29.7893 7.79421 29.4142C8.16929 29.0391 8.38 28.5304 8.38 28V27.63H8.76C9.29043 27.63 9.79914 27.4193 10.1742 27.0442C10.5493 26.6692 10.76 26.1604 10.76 25.63C10.76 25.0996 10.5493 24.5909 10.1742 24.2158C9.79914 23.8407 9.29043 23.63 8.76 23.63H8.75Z" fill="url(#paint10_linear)"/>
<path d="M46.5 39.6801C46.3126 39.4667 46.0819 39.2958 45.8233 39.1785C45.5646 39.0613 45.284 39.0004 45 39.0001H19C18.713 38.9975 18.4288 39.0566 18.1667 39.1736C17.9046 39.2905 17.6708 39.4625 17.481 39.6778C17.2913 39.8932 17.1502 40.1469 17.0672 40.4216C16.9842 40.6963 16.9613 40.9857 17 41.2701L19.54 60.2701C19.6057 60.7525 19.8451 61.1943 20.2133 61.5128C20.5815 61.8313 21.0532 62.0045 21.54 62.0001H42.46C42.9468 62.0045 43.4185 61.8313 43.7867 61.5128C44.1549 61.1943 44.3943 60.7525 44.46 60.2701L47 41.2701C47.0359 40.9847 47.0098 40.6949 46.9235 40.4205C46.8372 40.1461 46.6928 39.8936 46.5 39.6801Z" fill="url(#paint11_linear)"/>
<path opacity="0.3" d="M22.23 60.2701L19.69 41.2701C19.6513 40.9857 19.6742 40.6963 19.7572 40.4216C19.8402 40.1469 19.9813 39.8932 20.171 39.6778C20.3608 39.4625 20.5946 39.2905 20.8567 39.1736C21.1188 39.0566 21.403 38.9975 21.69 39.0001H19C18.713 38.9975 18.4288 39.0566 18.1667 39.1736C17.9046 39.2905 17.6708 39.4625 17.481 39.6778C17.2913 39.8932 17.1502 40.1469 17.0672 40.4216C16.9842 40.6963 16.9613 40.9857 17 41.2701L19.54 60.2701C19.6057 60.7525 19.8451 61.1943 20.2133 61.5128C20.5815 61.8313 21.0532 62.0045 21.54 62.0001H24.21C23.7266 61.9997 23.2598 61.8242 22.8958 61.5062C22.5318 61.1881 22.2953 60.749 22.23 60.2701Z" fill="black"/>
<defs>
<linearGradient id="paint0_linear" x1="20.36" y1="13.17" x2="43.6399" y2="13.17" gradientUnits="userSpaceOnUse">
<stop stop-color="#FFEB1C"/>
<stop offset="0.32" stop-color="#FED319"/>
<stop offset="0.99" stop-color="#FC9612"/>
<stop offset="1" stop-color="#FC9512"/>
</linearGradient>
<linearGradient id="paint1_linear" x1="18.8301" y1="31.57" x2="34.0001" y2="31.57" gradientUnits="userSpaceOnUse">
<stop stop-color="#A6FD23"/>
<stop offset="0.23" stop-color="#8EEA1D"/>
<stop offset="0.72" stop-color="#51BB0C"/>
<stop offset="1" stop-color="#2A9D02"/>
</linearGradient>
<linearGradient id="paint2_linear" x1="30" y1="30.39" x2="34" y2="30.39" gradientUnits="userSpaceOnUse">
<stop stop-color="#0FC000"/>
<stop offset="0.28" stop-color="#0BA809"/>
<stop offset="0.87" stop-color="#026B21"/>
<stop offset="1" stop-color="#005C27"/>
</linearGradient>
<linearGradient id="paint3_linear" x1="200.957" y1="88.1763" x2="236.003" y2="88.1763" gradientUnits="userSpaceOnUse">
<stop stop-color="#FFEB1C"/>
<stop offset="0.32" stop-color="#FED319"/>
<stop offset="0.99" stop-color="#FC9612"/>
<stop offset="1" stop-color="#FC9512"/>
</linearGradient>
<linearGradient id="paint4_linear" x1="581.1" y1="614.598" x2="918.557" y2="614.598" gradientUnits="userSpaceOnUse">
<stop stop-color="#A6FD23"/>
<stop offset="0.23" stop-color="#8EEA1D"/>
<stop offset="0.72" stop-color="#51BB0C"/>
<stop offset="1" stop-color="#2A9D02"/>
</linearGradient>
<linearGradient id="paint5_linear" x1="366.761" y1="436.122" x2="494.995" y2="436.122" gradientUnits="userSpaceOnUse">
<stop stop-color="#0FC000"/>
<stop offset="0.28" stop-color="#0BA809"/>
<stop offset="0.87" stop-color="#026B21"/>
<stop offset="1" stop-color="#005C27"/>
</linearGradient>
<linearGradient id="paint6_linear" x1="249.974" y1="339.108" x2="34.017" y2="339.108" gradientUnits="userSpaceOnUse">
<stop stop-color="#0FC000"/>
<stop offset="0.28" stop-color="#0BA809"/>
<stop offset="0.87" stop-color="#026B21"/>
<stop offset="1" stop-color="#005C27"/>
</linearGradient>
<linearGradient id="paint7_linear" x1="464.392" y1="112.63" x2="540.955" y2="112.63" gradientUnits="userSpaceOnUse">
<stop stop-color="#A6FD23"/>
<stop offset="0.23" stop-color="#8EEA1D"/>
<stop offset="0.72" stop-color="#51BB0C"/>
<stop offset="1" stop-color="#2A9D02"/>
</linearGradient>
<linearGradient id="paint8_linear" x1="518.665" y1="284.226" x2="595.14" y2="284.226" gradientUnits="userSpaceOnUse">
<stop stop-color="#A6FD23"/>
<stop offset="0.23" stop-color="#8EEA1D"/>
<stop offset="0.72" stop-color="#51BB0C"/>
<stop offset="1" stop-color="#2A9D02"/>
</linearGradient>
<linearGradient id="paint9_linear" x1="74.3924" y1="57.8888" x2="150.955" y2="57.8888" gradientUnits="userSpaceOnUse">
<stop stop-color="#A6FD23"/>
<stop offset="0.23" stop-color="#8EEA1D"/>
<stop offset="0.72" stop-color="#51BB0C"/>
<stop offset="1" stop-color="#2A9D02"/>
</linearGradient>
<linearGradient id="paint10_linear" x1="19.52" y1="245.266" x2="96.17" y2="245.266" gradientUnits="userSpaceOnUse">
<stop stop-color="#A6FD23"/>
<stop offset="0.23" stop-color="#8EEA1D"/>
<stop offset="0.72" stop-color="#51BB0C"/>
<stop offset="1" stop-color="#2A9D02"/>
</linearGradient>
<linearGradient id="paint11_linear" x1="17" y1="50.5001" x2="47" y2="50.5001" gradientUnits="userSpaceOnUse">
<stop stop-color="#C6C6C6"/>
<stop offset="0.42" stop-color="#AEAEAE"/>
<stop offset="1" stop-color="#878787"/>
</linearGradient>
</defs>
</svg>
